<?xml version="1.0" encoding="utf-8"?>
<!-- Generator: Adobe Illustrator 22.1.0, SVG Export Plug-In . SVG Version: 6.00 Build 0)  -->
<svg version="1.1" id="Layer_1" xmlns="http://www.w3.org/2000/svg" xmlns:xlink="http://www.w3.org/1999/xlink" x="0px" y="0px"
	 viewBox="0 0 464 100" style="enable-background:new 0 0 464 100;" xml:space="preserve">
<style type="text/css">
	.st0{fill:#EC1C24;}
	.st1{fill:#FFFFFF;}
	.st2{fill:#EC1E24;}
	.st3{fill:none;stroke:#EC1E24;stroke-width:0.2256;stroke-miterlimit:10;}
	.st4{fill:#666666;}
	.st5{fill:#4D4D4D;}
</style>
<g>
	<g>
		<path class="st0" d="M99.2,50c0,27.2-22,49.2-49.3,49.2c-27.2,0-49.2-22-49.2-49.2c0-27.2,22-49.2,49.2-49.2
			C77.1,0.8,99.2,22.8,99.2,50"/>
		<path class="st1" d="M75.2,25.4H24.6c-2,0-3.7,1.6-3.7,3.7v29.4c0,2,1.6,3.7,3.7,3.7h16.9v-4.8H25.2V30.2h49.5v27.2h-2.6v4.8h3.1
			c2,0,3.7-1.6,3.7-3.7V29.1C78.9,27,77.3,25.4,75.2,25.4"/>
		<path class="st1" d="M46.8,70V43.1h18.5v5.1h4.1v-5.9c0-1.9-1.5-3.5-3.5-3.5H46.2c-1.9,0-3.5,1.5-3.5,3.5v28.9
			c0,1.9,1.5,3.5,3.5,3.5h8.1V70H46.8z"/>
		<path class="st1" d="M68.1,49.4H58c-1.5,0-2.8,1.2-2.8,2.8v19.7c0,1.5,1.2,2.8,2.8,2.8h10c1.5,0,2.8-1.2,2.8-2.8V52.2
			C70.8,50.6,69.6,49.4,68.1,49.4 M59.1,50.9h7.8c0.5,0,0.9,0.4,0.9,0.9c0,0.5-0.4,0.9-0.9,0.9h-7.8c-0.5,0-0.9-0.4-0.9-0.9
			C58.3,51.3,58.7,50.9,59.1,50.9 M63,73.7c-0.9,0-1.6-0.7-1.6-1.6c0-0.9,0.7-1.6,1.6-1.6c0.9,0,1.6,0.7,1.6,1.6
			C64.7,73,64,73.7,63,73.7 M69,68.7h-12V54.5h12V68.7z"/>
		<path class="st1" d="M75.6,67.9h-3.5v6.8h3.5c1.8,0,3.3-1.5,3.3-3.3v-0.2C78.9,69.3,77.5,67.9,75.6,67.9"/>
		<path class="st1" d="M24.2,67.9c-1.8,0-3.3,1.5-3.3,3.3v0.2c0,1.8,1.5,3.3,3.3,3.3h17.3v-6.8H24.2z M32.6,71.2H24
			c-0.4,0-0.7-0.3-0.7-0.7c0-0.4,0.3-0.7,0.7-0.7h8.5c0.4,0,0.7,0.3,0.7,0.7C33.3,70.9,33,71.2,32.6,71.2"/>
	</g>
	<path class="st0" d="M206.4,24h9.4l0,5.7c1.5-4.5,4.3-6.4,7.2-6.4c0.9,0,1.3,0,2,0.1v9.1c-0.7-0.1-1.5-0.3-2.5-0.3
		c-3.5,0-5.8,1.9-6.4,4.9c-0.1,0.6-0.2,1.4-0.2,2.2V55h-9.4V24z"/>
	<path class="st0" d="M130.5,15.4c0,2.7-2,4.8-5.1,4.8c-3,0-4.9-2.1-4.9-4.8c-0.1-2.8,1.9-4.9,4.9-4.9S130.4,12.6,130.5,15.4
		 M120.8,55L120.8,55V24h9.4v31H120.8z"/>
	<path class="st0" d="M167.1,54.4c-2.1,0.7-5.3,1.3-9.3,1.3c-14.4,0-21.8-9.2-21.8-21.3c0-14.6,10.1-22.7,22.7-22.7
		c3.5,0,6.4,0.5,8.3,1.1v8.4c-1.9-0.8-4.6-1.6-7.9-1.6c-7.5,0-13.3,4.6-13.3,14.1c0,8.5,4.9,13.9,13.3,13.9c2.8,0,6-0.6,7.8-1.4
		V54.4z"/>
	<path class="st0" d="M190.4,55l0-3.1h-0.2c-2,2.5-5.1,3.8-8.6,3.8c-6.1,0-9.7-4.6-9.7-9.5c0-8,7-11.9,17.7-11.8v-0.4
		c0-1.6-0.9-4-5.5-4c-3.1,0-6.4,1.1-8.3,2.3v-7.1c2.3-1,5.8-1.9,10-1.9c10.1,0,13.3,6.1,13.3,13.4v10.8v0.1V55H190.4z M189.8,40.4
		L189.8,40.4c-4.9-0.1-8.8,1.1-8.8,4.9c0,2.5,1.6,3.7,3.7,3.7c2.3,0,4.3-1.6,4.9-3.6c0.1-0.5,0.2-1.1,0.2-1.6V40.4z"/>
	<path class="st0" d="M236.5,42.6c0.3,4,4.1,5.9,8.5,5.9c3.2,0,5.8-0.4,8.3-1.3v7c-2.8,1-6.1,1.4-9.7,1.4
		c-10.2,0-16.1-6.1-16.1-15.8c0-7.9,4.8-16.5,15.2-16.5c9.7,0,13.4,7.8,13.4,15.5c0,1.6-0.2,3.1-0.3,3.8H236.5z M247.6,36L247.6,36
		c0-2.3-1-6.3-5.3-6.3c-3.9,0-5.6,3.7-5.8,6.3H247.6z"/>
	<path class="st0" d="M303.8,54.4c-2,0.7-5.3,1.3-9.3,1.3c-14.4,0-21.8-9.2-21.8-21.3c0-14.6,10.1-22.7,22.7-22.7
		c3.5,0,6.4,0.5,8.3,1.1v8.4c-1.9-0.8-4.6-1.6-7.9-1.6c-7.5,0-13.3,4.6-13.3,14.1c0,8.5,4.9,13.9,13.3,13.9c2.8,0,6-0.6,7.8-1.4
		V54.4z"/>
	<path class="st0" d="M317.1,42.6c0.3,4,4.1,5.9,8.5,5.9c3.2,0,5.8-0.4,8.3-1.3v7c-2.8,1-6.1,1.4-9.7,1.4
		c-10.2,0-16.1-6.1-16.1-15.8c0-7.9,4.8-16.5,15.2-16.5c9.7,0,13.5,7.8,13.5,15.5c0,1.6-0.2,3.1-0.3,3.8H317.1z M328.2,36L328.2,36
		c0-2.3-1-6.3-5.3-6.3c-3.9,0-5.6,3.7-5.8,6.3H328.2z"/>
	<path class="st0" d="M342.5,33.9v-0.2V24h9.4l0,4.2c1.2-2,3.5-4.9,8.5-4.9c6.2,0,10.8,4.2,10.8,13.3V55h-9.4V37.8
		c0-4-1.4-6.7-4.8-6.7c-2.6,0-4.1,1.8-4.8,3.6c-0.2,0.6-0.4,1.5-0.4,2.4V55h-9.4V33.9z"/>
	<path class="st0" d="M388.8,16.2V24h6.7v7.1h-6.7v11.2c0,3.7,0.9,5.5,3.7,5.5c1.2,0,2.1-0.1,2.8-0.3l0.1,7.3
		c-1.2,0.5-3.5,0.8-6.1,0.8c-3,0-5.6-1.1-7-2.7c-1.7-1.8-2.6-4.8-2.6-9.2V31.1h-4V24h4v-7.8H388.8z"/>
	<path class="st0" d="M407.9,42.6c0.3,4,4.1,5.9,8.5,5.9c3.2,0,5.8-0.4,8.3-1.3v7c-2.8,1-6.1,1.4-9.7,1.4
		c-10.2,0-16.1-6.1-16.1-15.8c0-7.9,4.8-16.5,15.2-16.5c9.7,0,13.5,7.8,13.5,15.5c0,1.6-0.2,3.1-0.3,3.8H407.9z M418.9,36L418.9,36
		c0-2.3-1-6.3-5.3-6.3c-4,0-5.6,3.7-5.8,6.3H418.9z"/>
	<path class="st0" d="M432.9,24h9.4l0,5.7c1.5-4.5,4.3-6.4,7.2-6.4c0.9,0,1.3,0,2,0.1v9.1c-0.7-0.1-1.5-0.3-2.5-0.3
		c-3.5,0-5.8,1.9-6.4,4.9c-0.1,0.6-0.2,1.4-0.2,2.2V55h-9.4V24z"/>
	<path class="st2" d="M459,18.9c-2.4,0-4.3,1.9-4.3,4.3c0,2.4,1.9,4.3,4.3,4.3c2.4,0,4.3-1.9,4.3-4.3
		C463.3,20.9,461.4,18.9,459,18.9 M459,27c-2.1,0-3.7-1.7-3.7-3.7c0-2.1,1.7-3.7,3.7-3.7c2.1,0,3.7,1.7,3.7,3.7
		C462.8,25.3,461.1,27,459,27"/>
	<path class="st2" d="M460.5,25.3h-0.6l-0.7-1.1c-0.1-0.1-0.1-0.2-0.2-0.3c-0.1-0.1-0.1-0.1-0.2-0.2c-0.1,0-0.1-0.1-0.2-0.1
		c-0.1,0-0.2,0-0.2,0H458v1.7h-0.5v-4.1h1.2c0.2,0,0.3,0,0.5,0.1c0.1,0,0.3,0.1,0.4,0.2c0.1,0.1,0.2,0.2,0.3,0.3
		c0.1,0.1,0.1,0.3,0.1,0.5c0,0.1,0,0.3-0.1,0.4c0,0.1-0.1,0.2-0.2,0.3c-0.1,0.1-0.2,0.2-0.3,0.2c-0.1,0.1-0.2,0.1-0.4,0.2v0
		c0.1,0,0.1,0.1,0.2,0.1c0,0,0.1,0.1,0.1,0.1c0,0.1,0.1,0.1,0.1,0.2c0,0.1,0.1,0.1,0.1,0.2L460.5,25.3z M458,21.6v1.5h0.6
		c0.1,0,0.2,0,0.3-0.1c0.1,0,0.2-0.1,0.3-0.2c0.1-0.1,0.1-0.1,0.2-0.2c0-0.1,0.1-0.2,0.1-0.3c0-0.2-0.1-0.4-0.2-0.5
		c-0.1-0.1-0.3-0.2-0.6-0.2H458z"/>
	<path class="st3" d="M460.5,25.3h-0.6l-0.7-1.1c-0.1-0.1-0.1-0.2-0.2-0.3c-0.1-0.1-0.1-0.1-0.2-0.2c-0.1,0-0.1-0.1-0.2-0.1
		c-0.1,0-0.2,0-0.2,0H458v1.7h-0.5v-4.1h1.2c0.2,0,0.3,0,0.5,0.1c0.1,0,0.3,0.1,0.4,0.2c0.1,0.1,0.2,0.2,0.3,0.3
		c0.1,0.1,0.1,0.3,0.1,0.5c0,0.1,0,0.3-0.1,0.4c0,0.1-0.1,0.2-0.2,0.3c-0.1,0.1-0.2,0.2-0.3,0.2c-0.1,0.1-0.2,0.1-0.4,0.2v0
		c0.1,0,0.1,0.1,0.2,0.1c0,0,0.1,0.1,0.1,0.1c0,0.1,0.1,0.1,0.1,0.2c0,0.1,0.1,0.1,0.1,0.2L460.5,25.3z M458,21.6v1.5h0.6
		c0.1,0,0.2,0,0.3-0.1c0.1,0,0.2-0.1,0.3-0.2c0.1-0.1,0.1-0.1,0.2-0.2c0-0.1,0.1-0.2,0.1-0.3c0-0.2-0.1-0.4-0.2-0.5
		c-0.1-0.1-0.3-0.2-0.6-0.2H458z"/>
	<g>
		<path class="st4" d="M125.5,73.3h-4.6v-1.7H132v1.7h-4.6v11.8h-1.9V73.3z"/>
		<path class="st4" d="M142.4,76c0.8,0.8,1.1,1.9,1.1,3.3v5.9h-1.9v-5.7c0-1-0.2-1.7-0.7-2.2c-0.5-0.5-1.2-0.8-2-0.8
			c-1,0-1.8,0.3-2.4,0.9c-0.6,0.6-0.9,1.4-0.9,2.5v5.3h-1.9V70.8h1.9v5.5c0.4-0.5,0.9-0.9,1.5-1.1c0.6-0.3,1.3-0.4,2.1-0.4
			C140.6,74.8,141.6,75.2,142.4,76z"/>
		<path class="st4" d="M154,75.9c0.8,0.7,1.1,1.7,1.1,3.1v6.2h-1.8v-1.4c-0.3,0.5-0.8,0.8-1.3,1.1s-1.3,0.4-2,0.4
			c-1.1,0-2.1-0.3-2.8-0.8c-0.7-0.6-1-1.3-1-2.2s0.3-1.6,1-2.2s1.7-0.8,3.1-0.8h2.9v-0.4c0-0.8-0.2-1.4-0.7-1.8
			c-0.5-0.4-1.1-0.6-2-0.6c-0.6,0-1.2,0.1-1.8,0.3c-0.6,0.2-1.1,0.5-1.5,0.8l-0.8-1.4c0.5-0.4,1.2-0.7,1.9-1s1.5-0.3,2.3-0.3
			C152.1,74.8,153.2,75.2,154,75.9z M147.3,70.9h2.4l2.6,2.5h-1.7L147.3,70.9z M152.1,83.4c0.5-0.3,0.9-0.8,1.1-1.3v-1.4h-2.9
			c-1.6,0-2.4,0.5-2.4,1.6c0,0.5,0.2,0.9,0.6,1.2c0.4,0.3,1,0.4,1.7,0.4S151.6,83.7,152.1,83.4z"/>
		<path class="st4" d="M167.1,76c0.8,0.8,1.1,1.9,1.1,3.3v5.9h-1.9v-5.7c0-1-0.2-1.7-0.7-2.2c-0.5-0.5-1.2-0.8-2-0.8
			c-1,0-1.8,0.3-2.4,0.9c-0.6,0.6-0.9,1.4-0.9,2.5v5.3h-1.9V74.9h1.8v1.5c0.4-0.5,0.9-0.9,1.5-1.2c0.6-0.3,1.4-0.4,2.2-0.4
			C165.3,74.8,166.3,75.2,167.1,76z"/>
		<path class="st4" d="M180.2,76c0.8,0.8,1.1,1.9,1.1,3.3v5.9h-1.9v-5.7c0-1-0.2-1.7-0.7-2.2c-0.5-0.5-1.2-0.8-2-0.8
			c-1,0-1.8,0.3-2.4,0.9c-0.6,0.6-0.9,1.4-0.9,2.5v5.3h-1.9V70.8h1.9v5.5c0.4-0.5,0.9-0.9,1.5-1.1c0.6-0.3,1.3-0.4,2.1-0.4
			C178.4,74.8,179.5,75.2,180.2,76z"/>
		<path class="st4" d="M199.1,74.9l-4.5,10.2h-1.9l-4.5-10.2h1.9l3.5,8.2l3.6-8.2H199.1z"/>
		<path class="st4" d="M200.8,72.6c-0.2-0.2-0.4-0.5-0.4-0.8c0-0.3,0.1-0.6,0.4-0.9c0.2-0.2,0.5-0.4,0.9-0.4s0.7,0.1,0.9,0.3
			s0.4,0.5,0.4,0.8c0,0.3-0.1,0.6-0.4,0.9s-0.5,0.4-0.9,0.4S201.1,72.9,200.8,72.6z M200.8,74.9h1.9v10.2h-1.9V74.9z"/>
		<path class="st4" d="M215.4,80.7h-8.3c0.1,0.9,0.5,1.6,1.2,2.2s1.5,0.8,2.5,0.8c1.2,0,2.2-0.4,3-1.2l1,1.2c-0.5,0.5-1,1-1.7,1.2
			c-0.7,0.3-1.5,0.4-2.3,0.4c-1.1,0-2-0.2-2.9-0.7c-0.8-0.4-1.5-1.1-1.9-1.9c-0.5-0.8-0.7-1.7-0.7-2.7c0-1,0.2-1.9,0.7-2.7
			c0.4-0.8,1.1-1.4,1.8-1.9c0.8-0.4,1.7-0.7,2.6-0.7c1,0,1.8,0.2,2.6,0.7s1.4,1.1,1.8,1.9c0.4,0.8,0.6,1.7,0.6,2.7
			C215.4,80.2,215.4,80.4,215.4,80.7z M212.1,73.4l-1.8-1.5l-1.8,1.5h-1.7l2.6-2.5h1.8l2.6,2.5H212.1z M208.1,77.2
			c-0.6,0.5-0.9,1.2-1.1,2.1h6.6c-0.1-0.9-0.5-1.6-1.1-2.1s-1.3-0.8-2.2-0.8C209.5,76.4,208.7,76.7,208.1,77.2z"/>
		<path class="st4" d="M226.6,76c0.8,0.8,1.1,1.9,1.1,3.3v5.9h-1.9v-5.7c0-1-0.2-1.7-0.7-2.2c-0.5-0.5-1.2-0.8-2-0.8
			c-1,0-1.8,0.3-2.4,0.9c-0.6,0.6-0.9,1.4-0.9,2.5v5.3H218V74.9h1.8v1.5c0.4-0.5,0.9-0.9,1.5-1.2c0.6-0.3,1.4-0.4,2.2-0.4
			C224.8,74.8,225.8,75.2,226.6,76z"/>
		<path class="st5" d="M238.9,84.5c-1.1-0.6-2-1.4-2.6-2.5s-1-2.3-1-3.6c0-1.3,0.3-2.5,1-3.6s1.5-1.9,2.6-2.5
			c1.1-0.6,2.4-0.9,3.8-0.9c1.2,0,2.2,0.2,3.2,0.6c0.9,0.4,1.7,1,2.4,1.8l-2,1.9c-0.9-1.1-2-1.6-3.4-1.6c-0.8,0-1.6,0.2-2.2,0.5
			s-1.2,0.9-1.5,1.5c-0.4,0.7-0.5,1.4-0.5,2.2s0.2,1.6,0.5,2.2c0.4,0.7,0.9,1.2,1.5,1.5s1.4,0.5,2.2,0.5c1.4,0,2.5-0.5,3.4-1.6
			l2,1.9c-0.6,0.8-1.4,1.4-2.4,1.8c-1,0.4-2,0.6-3.2,0.6C241.3,85.4,240,85.1,238.9,84.5z"/>
		<path class="st5" d="M251.7,84.6c-0.9-0.5-1.5-1.1-2-1.9c-0.5-0.8-0.7-1.7-0.7-2.8s0.2-1.9,0.7-2.8c0.5-0.8,1.2-1.4,2-1.9
			c0.9-0.5,1.8-0.7,2.9-0.7c1.1,0,2.1,0.2,2.9,0.7c0.9,0.5,1.5,1.1,2,1.9s0.7,1.7,0.7,2.8s-0.2,1.9-0.7,2.8c-0.5,0.8-1.2,1.4-2,1.9
			c-0.9,0.5-1.8,0.7-2.9,0.7C253.6,85.3,252.6,85.1,251.7,84.6z M256.3,73.4l-1.7-1.5l-1.7,1.5h-2.2l2.5-2.8h2.7l2.5,2.8H256.3z
			 M256.6,82.1c0.5-0.5,0.7-1.2,0.7-2.1s-0.2-1.6-0.7-2.1c-0.5-0.5-1.1-0.8-1.9-0.8c-0.8,0-1.4,0.3-1.9,0.8S252,79.1,252,80
			s0.3,1.6,0.8,2.1c0.5,0.5,1.1,0.8,1.9,0.8C255.5,82.8,256.1,82.6,256.6,82.1z"/>
		<path class="st5" d="M271.8,75.8c0.8,0.8,1.2,1.9,1.2,3.4v5.9h-3v-5.5c0-0.8-0.2-1.4-0.5-1.8c-0.4-0.4-0.9-0.6-1.6-0.6
			c-0.8,0-1.4,0.2-1.8,0.7s-0.7,1.2-0.7,2.1v5.1h-3V74.8h2.9V76c0.4-0.4,0.9-0.8,1.5-1s1.2-0.4,1.9-0.4C270,74.6,271,75,271.8,75.8z
			"/>
		<path class="st5" d="M286.6,74.8v8.6c0,1.9-0.5,3.3-1.5,4.2c-1,0.9-2.4,1.4-4.3,1.4c-1,0-2-0.1-2.9-0.4c-0.9-0.2-1.6-0.6-2.2-1.1
			l1.2-2.2c0.4,0.4,1,0.6,1.7,0.9c0.7,0.2,1.3,0.3,2,0.3c1,0,1.8-0.2,2.3-0.7s0.7-1.2,0.7-2.1v-0.4c-0.8,0.9-1.9,1.3-3.3,1.3
			c-1,0-1.8-0.2-2.6-0.6s-1.4-1-1.9-1.8s-0.7-1.6-0.7-2.6s0.2-1.9,0.7-2.6s1.1-1.3,1.9-1.8c0.8-0.4,1.7-0.6,2.6-0.6
			c1.5,0,2.7,0.5,3.4,1.5v-1.3H286.6z M282.8,81.5c0.5-0.5,0.8-1.1,0.8-1.8s-0.3-1.4-0.8-1.8c-0.5-0.5-1.2-0.7-2-0.7s-1.5,0.2-2,0.7
			s-0.8,1.1-0.8,1.8s0.3,1.4,0.8,1.8s1.2,0.7,2,0.7S282.3,82,282.8,81.5z"/>
		<path class="st5" d="M301.5,84.7c-0.3,0.2-0.7,0.4-1.1,0.5c-0.4,0.1-0.9,0.2-1.4,0.2c-1.2,0-2.2-0.3-2.9-0.9c-0.7-0.6-1-1.6-1-2.8
			v-4.3h-1.6V75h1.6v-2.5h3V75h2.6v2.3h-2.6v4.2c0,0.4,0.1,0.8,0.3,1c0.2,0.2,0.5,0.4,1,0.4c0.5,0,0.9-0.1,1.2-0.4L301.5,84.7z"/>
		<path class="st5" d="M313.3,74.8l-4.7,11c-0.5,1.2-1.1,2-1.8,2.5c-0.7,0.5-1.5,0.7-2.5,0.7c-0.5,0-1.1-0.1-1.6-0.3
			c-0.5-0.2-1-0.4-1.3-0.7l1.1-2.1c0.2,0.2,0.5,0.4,0.8,0.5c0.3,0.1,0.6,0.2,0.9,0.2c0.4,0,0.7-0.1,1-0.3c0.3-0.2,0.5-0.5,0.7-1
			l0-0.1l-4.5-10.5h3.1l2.9,7l2.9-7H313.3z"/>
		<path class="st5" d="M323,84.5c-1.1-0.6-2-1.4-2.6-2.5s-1-2.3-1-3.6c0-1.3,0.3-2.5,1-3.6s1.5-1.9,2.6-2.5c1.1-0.6,2.4-0.9,3.8-0.9
			c1.2,0,2.2,0.2,3.2,0.6c0.9,0.4,1.7,1,2.4,1.8l-2,1.9c-0.9-1.1-2-1.6-3.4-1.6c-0.8,0-1.6,0.2-2.2,0.5s-1.2,0.9-1.5,1.5
			c-0.4,0.7-0.5,1.4-0.5,2.2s0.2,1.6,0.5,2.2c0.4,0.7,0.9,1.2,1.5,1.5s1.4,0.5,2.2,0.5c1.4,0,2.5-0.5,3.4-1.6l2,1.9
			c-0.6,0.8-1.4,1.4-2.4,1.8c-1,0.4-2,0.6-3.2,0.6C325.3,85.4,324.1,85.1,323,84.5z"/>
		<path class="st5" d="M335.8,84.6c-0.9-0.5-1.5-1.1-2-1.9c-0.5-0.8-0.7-1.7-0.7-2.8s0.2-1.9,0.7-2.8c0.5-0.8,1.2-1.4,2-1.9
			c0.9-0.5,1.8-0.7,2.9-0.7c1.1,0,2.1,0.2,2.9,0.7c0.9,0.5,1.5,1.1,2,1.9s0.7,1.7,0.7,2.8s-0.2,1.9-0.7,2.8c-0.5,0.8-1.2,1.4-2,1.9
			c-0.9,0.5-1.8,0.7-2.9,0.7C337.7,85.3,336.7,85.1,335.8,84.6z M340.4,73.4l-1.7-1.1l-1.7,1.1h-2.2l2.6-2.2h2.6l2.6,2.2H340.4z
			 M340.6,82.1c0.5-0.5,0.7-1.2,0.7-2.1s-0.2-1.6-0.7-2.1c-0.5-0.5-1.1-0.8-1.9-0.8c-0.8,0-1.4,0.3-1.9,0.8s-0.8,1.2-0.8,2.1
			s0.3,1.6,0.8,2.1c0.5,0.5,1.1,0.8,1.9,0.8C339.5,82.8,340.2,82.6,340.6,82.1z M341.4,71.2c0.5-0.2,0.7-0.5,0.7-0.8
			c0-0.2-0.1-0.3-0.2-0.4c-0.1-0.1-0.3-0.2-0.5-0.2c-0.3,0-0.6,0.1-0.8,0.2l-0.5-0.9c0.4-0.3,1-0.4,1.6-0.4c0.5,0,1,0.1,1.3,0.4
			c0.3,0.3,0.5,0.6,0.5,1.1c0,0.4-0.1,0.7-0.4,1c-0.3,0.3-0.6,0.5-1,0.7L341.4,71.2z"/>
		<path class="st5" d="M360.7,75.3c0.8,0.4,1.4,1.1,1.9,1.9c0.5,0.8,0.7,1.7,0.7,2.8s-0.2,2-0.7,2.8c-0.5,0.8-1.1,1.4-1.9,1.9
			c-0.8,0.4-1.7,0.7-2.6,0.7c-1.3,0-2.4-0.4-3.1-1.3v4.8h-3V74.8h2.9V76c0.7-0.9,1.8-1.4,3.3-1.4C359,74.6,359.9,74.8,360.7,75.3z
			 M359.4,82.1c0.5-0.5,0.7-1.2,0.7-2.1s-0.2-1.6-0.7-2.1s-1.1-0.8-1.9-0.8c-0.8,0-1.4,0.3-1.9,0.8c-0.5,0.5-0.7,1.2-0.7,2.1
			s0.2,1.6,0.7,2.1c0.5,0.5,1.1,0.8,1.9,0.8C358.3,82.8,358.9,82.6,359.4,82.1z"/>
		<path class="st5" d="M374.7,75.8c0.8,0.8,1.2,1.9,1.2,3.4v5.9h-3v-5.5c0-0.8-0.2-1.4-0.5-1.8c-0.4-0.4-0.9-0.6-1.6-0.6
			c-0.8,0-1.4,0.2-1.8,0.7s-0.7,1.2-0.7,2.1v5.1h-3V70.8h3v5c0.4-0.4,0.9-0.7,1.4-0.9c0.6-0.2,1.2-0.3,1.9-0.3
			C372.8,74.6,373.9,75,374.7,75.8z"/>
		<path class="st5" d="M386.5,75.8c0.9,0.8,1.3,1.9,1.3,3.5v5.9h-2.8v-1.3c-0.6,1-1.6,1.4-3.2,1.4c-0.8,0-1.5-0.1-2.1-0.4
			c-0.6-0.3-1-0.6-1.3-1.1c-0.3-0.5-0.5-1-0.5-1.6c0-1,0.4-1.7,1.1-2.3c0.7-0.6,1.8-0.8,3.4-0.8h2.4c0-0.7-0.2-1.2-0.6-1.5
			c-0.4-0.4-1-0.5-1.8-0.5c-0.6,0-1.1,0.1-1.6,0.3c-0.5,0.2-1,0.4-1.4,0.7l-1.1-2.1c0.6-0.4,1.2-0.7,2-0.9c0.8-0.2,1.6-0.3,2.4-0.3
			C384.4,74.6,385.6,75,386.5,75.8z M384.7,73.4l-1.7-1.1l-1.7,1.1h-2.2l2.6-2.2h2.6l2.6,2.2H384.7z M383.9,82.9
			c0.4-0.2,0.7-0.6,0.8-1.1v-1.1h-2.1c-1.2,0-1.9,0.4-1.9,1.2c0,0.4,0.2,0.7,0.5,0.9c0.3,0.2,0.7,0.3,1.2,0.3
			C383,83.3,383.5,83.2,383.9,82.9z M383.5,69.3h3.1l2.1,2.3h-2.2L383.5,69.3z"/>
		<path class="st5" d="M399.9,75.8c0.8,0.8,1.2,1.9,1.2,3.4v5.9h-3v-5.5c0-0.8-0.2-1.4-0.5-1.8c-0.4-0.4-0.9-0.6-1.6-0.6
			c-0.8,0-1.4,0.2-1.8,0.7s-0.7,1.2-0.7,2.1v5.1h-3V74.8h2.9V76c0.4-0.4,0.9-0.8,1.5-1s1.2-0.4,1.9-0.4
			C398.1,74.6,399.1,75,399.9,75.8z"/>
		<path class="st5" d="M409.5,71.7h3.1v13.5h-3.1V71.7z"/>
		<path class="st5" d="M415.4,84.8c-0.4-0.4-0.5-0.8-0.5-1.4c0-0.6,0.2-1,0.5-1.3c0.4-0.3,0.8-0.5,1.3-0.5s1,0.2,1.3,0.5
			c0.4,0.3,0.5,0.8,0.5,1.3c0,0.5-0.2,1-0.5,1.4c-0.4,0.4-0.8,0.5-1.3,0.5S415.8,85.1,415.4,84.8z"/>
		<path class="st5" d="M429.8,72.3c0.9,0.4,1.6,1,2,1.7c0.5,0.7,0.7,1.6,0.7,2.6c0,1-0.2,1.9-0.7,2.6c-0.5,0.7-1.2,1.3-2,1.7
			c-0.9,0.4-1.9,0.6-3.1,0.6H424v3.7h-3.1V71.7h5.8C427.9,71.7,429,71.9,429.8,72.3z M428.7,78.3c0.5-0.4,0.7-1,0.7-1.7
			c0-0.8-0.2-1.3-0.7-1.7s-1.2-0.6-2.1-0.6H424v4.7h2.5C427.5,78.9,428.2,78.7,428.7,78.3z"/>
		<path class="st5" d="M434.1,84.8c-0.4-0.4-0.5-0.8-0.5-1.4c0-0.6,0.2-1,0.5-1.3c0.4-0.3,0.8-0.5,1.3-0.5s1,0.2,1.3,0.5
			c0.4,0.3,0.5,0.8,0.5,1.3c0,0.5-0.2,1-0.5,1.4c-0.4,0.4-0.8,0.5-1.3,0.5S434.4,85.1,434.1,84.8z"/>
		<path class="st5" d="M439.5,71.7h3.1v11h6.8v2.5h-9.9V71.7z"/>
	</g>
</g>
</svg>
