<svg xmlns="http://www.w3.org/2000/svg" xmlns:xlink="http://www.w3.org/1999/xlink" width="275.502" height="87.628" viewBox="0 0 275.502 87.628"><defs><clipPath id="a"><rect width="275.502" height="87.628" fill="none"/></clipPath></defs><g clip-path="url(#a)"><path d="M793.5,633.9l-.836,1.615-.148-.081a.415.415,0,0,0-.13-.323,2.731,2.731,0,0,0-1.039-.519,4.881,4.881,0,0,0-1.393-.2,3.157,3.157,0,0,0-1.064.167c-.447.161-.669.393-.669.7a.441.441,0,0,0,.323.429,5.168,5.168,0,0,0,1.243.2l.978.073a4.615,4.615,0,0,1,1.95.5,1.9,1.9,0,0,1,.915,1.639,1.9,1.9,0,0,1-.952,1.672,4.5,4.5,0,0,1-2.463.586,7.265,7.265,0,0,1-3.026-.661.42.42,0,0,0-.167-.043.29.29,0,0,0-.228.147l-.155-.061.712-1.7.154.063v.049a.357.357,0,0,0,.124.271,2.706,2.706,0,0,0,1.072.474,5.86,5.86,0,0,0,1.5.2,3.7,3.7,0,0,0,1.176-.173q.643-.212.643-.68a.545.545,0,0,0-.446-.525,5.31,5.31,0,0,0-1.07-.167l-.972-.081a8.509,8.509,0,0,1-1.2-.161,2.406,2.406,0,0,1-.724-.291,1.723,1.723,0,0,1-.62-.675,1.99,1.99,0,0,1-.222-.934,1.92,1.92,0,0,1,.978-1.737,4.145,4.145,0,0,1,2.2-.545,5.39,5.39,0,0,1,1.328.157,8.775,8.775,0,0,1,1.467.555,1.024,1.024,0,0,0,.354.116.44.44,0,0,0,.254-.136Z" transform="translate(-662.257 -560.504)" fill="#fff"/><path d="M795.332,633.831v5.661a.44.44,0,0,0,.087.293.652.652,0,0,0,.309.171v.173h-2.449v-.173a.593.593,0,0,0,.307-.161.45.45,0,0,0,.089-.3v-5.667a.436.436,0,0,0-.087-.291.686.686,0,0,0-.309-.167V633.2h2.449v.173a.619.619,0,0,0-.309.165.441.441,0,0,0-.087.293" transform="translate(-655.831 -560.431)" fill="#fff"/><path d="M799.625,635.563v3.93a.442.442,0,0,0,.091.3.613.613,0,0,0,.3.165v.173h-2.3v-.173a.577.577,0,0,0,.307-.161.45.45,0,0,0,.09-.3V633.83a.42.42,0,0,0-.089-.289.658.658,0,0,0-.309-.167V633.2h2.662v.173c-.181.045-.271.124-.271.24a.537.537,0,0,0,.2.346l3.718,3.688V633.83a.446.446,0,0,0-.087-.293.6.6,0,0,0-.309-.163V633.2h2.3v.173a.587.587,0,0,0-.309.163.432.432,0,0,0-.089.293v5.663a.438.438,0,0,0,.089.293.649.649,0,0,0,.309.169v.173h-2.483v-.173c.181-.037.271-.112.271-.226a.285.285,0,0,0-.073-.179c-.051-.061-.165-.181-.34-.362Z" transform="translate(-651.536 -560.43)" fill="#fff"/><path d="M811.936,637.716l1.045,1.529-.142.1a.449.449,0,0,0-.234-.1,1.484,1.484,0,0,0-.49.228,6.968,6.968,0,0,1-1.5.686,5.3,5.3,0,0,1-1.5.193,4.466,4.466,0,0,1-2.766-.81,3.378,3.378,0,0,1-.964-1.163,3.548,3.548,0,0,1-.386-1.641,3.473,3.473,0,0,1,.706-2.152,3.987,3.987,0,0,1,3.4-1.461,5.408,5.408,0,0,1,1.507.193,6.763,6.763,0,0,1,1.5.686,1.484,1.484,0,0,0,.49.228.449.449,0,0,0,.234-.1l.142.11-1.045,1.517-.136-.1c0-.049.01-.081.012-.092a.8.8,0,0,0,.006-.081q0-.3-.834-.682a3.807,3.807,0,0,0-1.6-.364,2.857,2.857,0,0,0-1.855.592,2.172,2.172,0,0,0,0,3.425,2.883,2.883,0,0,0,1.855.586,3.875,3.875,0,0,0,1.751-.439q.682-.345.681-.606c0-.01-.006-.067-.018-.175Z" transform="translate(-644.488 -560.504)" fill="#fff"/><path d="M814.2,637.379v1.69h4.4a.456.456,0,0,0,.293-.087.614.614,0,0,0,.163-.311h.171v2.048h-.171a.591.591,0,0,0-.163-.3.428.428,0,0,0-.293-.09h-6.454v-.173a.591.591,0,0,0,.307-.161.46.46,0,0,0,.089-.3v-5.667a.429.429,0,0,0-.089-.291.667.667,0,0,0-.307-.165v-.175h6.257a.44.44,0,0,0,.3-.087.6.6,0,0,0,.167-.309h.165v2.048h-.165a.611.611,0,0,0-.167-.311.45.45,0,0,0-.3-.085h-4.2v1.523h2.608a.46.46,0,0,0,.3-.087.685.685,0,0,0,.169-.311h.165v2h-.165a.622.622,0,0,0-.165-.307.447.447,0,0,0-.3-.089Z" transform="translate(-637.578 -560.625)" fill="#fff"/><path d="M730.783,619.585c0-10.615,0-12.57-.14-14.8-.14-2.374-.7-3.492-3-3.981a14.368,14.368,0,0,0-2.722-.208c-.769,0-1.186-.142-1.186-.63s.488-.627,1.536-.627c3.7,0,8.1.208,9.566.208,2.374,0,7.68-.208,9.847-.208,4.4,0,9.076.419,12.847,3a12.092,12.092,0,0,1,4.749,9.564c0,5.17-2.164,9.918-9.218,15.645,6.216,7.819,11.034,14.035,15.155,18.365,3.909,4.05,6.773,4.538,7.819,4.747a10.88,10.88,0,0,0,1.957.212c.557,0,.836.209.836.557,0,.559-.488.7-1.326.7h-6.635c-3.909,0-5.655-.35-7.471-1.328-3-1.607-5.655-4.888-9.566-10.266-2.793-3.84-6.006-8.589-6.913-9.637a1.464,1.464,0,0,0-1.257-.488l-6.076-.14c-.35,0-.559.14-.559.559v.978c0,6.493,0,12.011.348,14.944.21,2.024.629,3.563,2.724,3.842a32.623,32.623,0,0,0,3.421.279c.559,0,.838.209.838.557,0,.488-.488.7-1.4.7-4.048,0-9.216-.213-10.264-.213-1.328,0-5.726.213-8.52.213-.907,0-1.4-.213-1.4-.7,0-.348.279-.557,1.117-.557a11.512,11.512,0,0,0,2.514-.279c1.4-.279,1.745-1.818,2.024-3.842.35-2.933.35-8.451.35-14.875Zm8.24,5.516c0,.769.14,1.047.628,1.257a18.382,18.382,0,0,0,5.307.7c2.793,0,3.7-.279,4.959-1.186,2.1-1.538,4.119-4.751,4.119-10.477,0-9.914-6.564-12.779-10.683-12.779a15.283,15.283,0,0,0-3.7.279c-.488.14-.628.419-.628.978Z" transform="translate(-723.093 -593.184)" fill="#fff"/><path d="M758.42,620.521c0-9.007,0-10.683-.069-12.568-.142-2.026-.769-2.724-2.1-3.143a7.88,7.88,0,0,0-2.235-.279c-.628,0-.978-.14-.978-.7,0-.348.49-.488,1.467-.488,2.305,0,6.493.14,8.24.14,1.536,0,5.518-.14,7.89-.14.769,0,1.257.14,1.257.488,0,.559-.348.7-.978.7a8.557,8.557,0,0,0-1.816.21c-1.676.277-2.164,1.117-2.3,3.212-.14,1.885-.14,3.561-.14,12.568V631c0,5.726,0,10.477.279,12.991.208,1.6.629,2.514,2.443,2.791a23,23,0,0,0,3.143.211c.7,0,.978.348.978.627,0,.419-.488.63-1.188.63-4.048,0-8.238-.211-9.916-.211-1.4,0-5.585.211-8.03.211-.767,0-1.188-.211-1.188-.63,0-.279.211-.627.98-.627a9.039,9.039,0,0,0,2.164-.211c1.257-.277,1.607-1.117,1.816-2.862.279-2.443.279-7.194.279-12.92Z" transform="translate(-694.746 -589.305)" fill="#fff"/><path d="M770.911,620.523c0-9.01,0-10.684-.069-12.57-.14-2.026-.7-2.654-2.654-3.212a11.314,11.314,0,0,0-2.445-.21c-.628,0-1.047-.209-1.047-.628s.488-.559,1.4-.559c3.212,0,7.123.14,8.868.14,1.887,0,6.287-.14,9.987-.14,7.682,0,18.017,0,24.719,6.775,3.075,3.073,5.8,8.03,5.8,15.082a23.021,23.021,0,0,1-6.7,16.551c-2.793,2.791-9.287,6.981-20.6,6.981-2.235,0-4.888-.208-7.333-.348-2.443-.209-4.678-.35-6.214-.35-.7,0-2.024.071-3.492.071-1.468.071-3,.142-4.259.142-.769,0-1.188-.213-1.188-.63,0-.279.211-.628.978-.628a8.952,8.952,0,0,0,2.166-.212c1.257-.277,1.605-1.395,1.816-3.141.277-2.514.277-7.192.277-12.639Zm8.24,6.564c0,6.285.071,10.823.142,12.011.069,1.465.209,3.56.7,4.188.767,1.119,3.21,2.376,8.028,2.376,5.589,0,9.708-.978,13.408-4.05,3.981-3.283,5.238-8.59,5.238-14.734,0-7.544-3-12.43-5.726-14.806-5.657-5.028-12.361-5.656-17.177-5.656a13.028,13.028,0,0,0-3.771.419,1.041,1.041,0,0,0-.769,1.186c-.071,2.026-.071,6.914-.071,11.592Z" transform="translate(-683.473 -589.305)" fill="#fff"/><path d="M805.726,631c0,7.613,0,11.384,1.326,12.5,1.048.907,3.423,1.257,8.171,1.257,3.283,0,5.655-.071,7.192-1.678a7.108,7.108,0,0,0,1.536-3.56c.071-.559.211-.907.7-.907.421,0,.559.628.559,1.326a45.335,45.335,0,0,1-.907,6.844c-.419,1.328-.7,1.607-3.911,1.607-4.4,0-7.961-.071-11.034-.211-3.073-.069-5.656-.14-8.169-.14-.7,0-2.026.071-3.492.071-1.467.069-3,.14-4.261.14-.767,0-1.186-.21-1.186-.63,0-.279.209-.627.978-.627a9.035,9.035,0,0,0,2.164-.211c1.257-.277,1.607-1.4,1.818-3.141.277-2.516.277-7.194.277-12.641V620.522c0-9.007,0-10.683-.069-12.57-.14-2.024-.7-2.654-2.654-3.21a8.191,8.191,0,0,0-2.024-.21c-.7,0-1.048-.21-1.048-.628s.419-.561,1.326-.561c2.864,0,6.775.142,8.451.142,1.466,0,6.494-.142,8.868-.142.907,0,1.328.142,1.328.561s-.35.628-1.117.628a13.633,13.633,0,0,0-2.374.21c-1.676.277-2.166,1.117-2.306,3.21-.14,1.887-.14,3.563-.14,12.57Z" transform="translate(-657.367 -589.306)" fill="#fff"/><path d="M816.7,620.762c0-9.007,0-10.683-.071-12.568-.14-2.026-.7-2.656-2.652-3.212a11.336,11.336,0,0,0-2.445-.21c-.629,0-1.046-.21-1.046-.628s.488-.559,1.395-.559c3.212,0,7.123.14,8.87.14,1.955,0,15.572.069,16.758,0,1.119-.071,2.1-.281,2.585-.35a6.993,6.993,0,0,1,.978-.279c.348,0,.419.279.419.559a26.071,26.071,0,0,0-.488,3.84c-.071.629-.211,3.212-.352,3.911-.067.281-.208.978-.7.978-.419,0-.49-.279-.49-.767a5.612,5.612,0,0,0-.417-2.164c-.49-1.048-.977-1.886-4.052-2.166-1.047-.14-8.378-.279-9.635-.279-.279,0-.419.21-.419.559V622.23c0,.348.069.628.419.628,1.395,0,9.356,0,10.754-.14,1.466-.14,2.372-.279,2.933-.907.488-.419.7-.769.978-.769s.488.279.488.629-.14,1.326-.488,4.33c-.141,1.186-.281,3.561-.281,3.98,0,.488-.069,1.328-.628,1.328-.419,0-.559-.208-.559-.49-.071-.63-.071-1.4-.209-2.164-.35-1.188-1.119-2.1-3.425-2.3-1.115-.142-8.1-.281-9.635-.281-.279,0-.348.281-.348.63v4.747c0,2.026-.071,7.054,0,8.8.14,4.048,2.024,4.959,8.309,4.959a16.594,16.594,0,0,0,5.8-.769c1.536-.7,2.235-1.955,2.652-4.4.142-.631.279-.911.7-.911.488,0,.559.769.559,1.4a40.089,40.089,0,0,1-.838,6.564c-.419,1.536-.978,1.536-3.281,1.536-4.609,0-8.311-.071-11.313-.211-3-.069-5.307-.14-7.123-.14-.7,0-2.024.071-3.492.071-1.465.069-3,.14-4.259.14-.769,0-1.188-.211-1.188-.63,0-.279.21-.627.977-.627a9.021,9.021,0,0,0,2.164-.211c1.257-.277,1.609-1.4,1.818-3.141.279-2.514.279-7.194.279-12.641Z" transform="translate(-639.193 -589.546)" fill="#fff"/><path d="M874.523,603.344c-1.19,0-5.239.14-6.566.14-1.816,0-3.98-.14-6.006-.14-.7,0-1.049.14-1.049.559,0,.49.561.559,1.119.7,1.048.208,1.328.769,1.328,1.326a7.818,7.818,0,0,1-.909,3.143c-.907,1.816-8.38,14.525-9.147,15.92-1.049-1.674-9.078-15.572-10.2-17.385a4.626,4.626,0,0,1-.769-2.026c0-.488.35-.769.838-.907.978-.279,1.4-.279,1.4-.769,0-.419-.348-.559-.907-.559-2.793,0-5.657.14-6.983.14-2.026,0-6.633-.14-7.682-.14-.769,0-1.186.14-1.186.559s.417.628.907.628a6.1,6.1,0,0,1,2.583.769c1.188.628,2.445,2.024,3.982,4.19,2.164,3.141,10.544,16.2,10.963,17.108a11.85,11.85,0,0,1,1.4,6.216V637.7c0,.3,0,.755-.006,1.292q-.006.59-.026,1.31c-.028,1-.079,2.158-.177,3.334-.142,1.747-.63,2.864-1.887,3.141a9.322,9.322,0,0,1-2.164.212c-.7,0-.978.346-.978.628,0,.488.488.63,1.326.63,2.3,0,6.427-.213,7.961-.213,1.676,0,5.8.213,9.637.213.838,0,1.326-.213,1.326-.63,0-.281-.348-.628-1.047-.628a23.181,23.181,0,0,1-3.073-.212,2.515,2.515,0,0,1-2.231-1.713,4.716,4.716,0,0,1-.228-.952c-.02-.155-.041-.311-.055-.476-.14-2.514-.14-4.959-.14-5.937v-4.749a13.8,13.8,0,0,1,.769-5.935c.59-1.328,3.324-5.893,6.073-10.255l.372-.588c2.325-3.672,4.589-7.087,5.5-8.152a8.227,8.227,0,0,1,3.21-2.792,7.48,7.48,0,0,1,2.656-.7c.7,0,1.186-.279,1.186-.7,0-.348-.417-.488-1.115-.488" transform="translate(-622.439 -589.305)" fill="#fff"/><path d="M883.96,635.342l-5.579-3.049,1.318-3.667-9.269.748,11.042-8.429-4.656-1.125s1.55-7.9,1.633-8.242c-.328.144-7.739,3.262-7.739,3.262l-2.046-4.334-6.029,12.519L861.5,613.8l-3.34,2.04-4.105-4.857-2.781,6.672-4.81-1.251.277.856,3.806,13.563-3.732,2.642,9.214,4.89.543.342c-.606,1.1-4.772,8.128-12.641,9.36a10.156,10.156,0,0,1-1.54.159c-.454.03.23,1.229,3.2.488,3.867-.964,8.128-3.456,11.842-8.954l5.972,7.233,1.837-4.188,14.866,1.037-2.123-4.416ZM857.32,639.41h0l-.464-.517c.187-.309,4.011-6.694,4.593-11.079,0,0,.763,3.364-4.129,11.6" transform="translate(-608.456 -582.379)" fill="#e75214"/><path d="M912.565,628.62H723.406v3.092H914.375v14.63h50.789V628.62Zm10.172,7.341c0-.927-.018-1.67-.018-2.258,0-.413,0-.62-.256-.62a12.5,12.5,0,0,0-2,.826.8.8,0,0,1-.244.069c-.057,0-.12-.087-.12-.189a.31.31,0,0,1,.171-.242c.069-.034,3.366-2.207,3.985-2.658a.936.936,0,0,1,.446-.222c.156,0,.193.189.193.362,0,.138-.089,1.843-.089,4.485V638.7c0,1.654,0,3.122.069,3.881.051.553.14.809.691.93a10.815,10.815,0,0,0,1.137.1c.069,0,.138.051.138.173s-.087.157-.274.157c-1.312,0-2.416-.053-2.88-.053-.4,0-1.847.053-2.949.053-.191,0-.275-.035-.275-.157s.069-.173.138-.173a11.088,11.088,0,0,0,1.375-.12c.537-.12.639-.36.7-.913.063-.759.063-2.227.063-3.881Zm5.887,4.847c0-1.918,1.5-3.191,3.173-3.865-1.43-.74-2.5-1.69-2.5-3.153,0-1.346,1.157-3.122,4.092-3.122,2.1,0,3.533.966,3.533,2.64a3.651,3.651,0,0,1-2.534,3.191c1.222.653,3.138,1.723,3.138,3.859,0,2.038-1.67,3.83-4.572,3.83-2.551,0-4.328-1.255-4.328-3.38m4.467,2.585a2.43,2.43,0,0,0,2.432-2.6c0-1.727-1.381-2.536-2.915-3.437a3.817,3.817,0,0,0-2.034,3.35,2.573,2.573,0,0,0,2.518,2.687m.1-11.986a1.96,1.96,0,0,0-2.1,2.038c0,1.068.744,1.774,2.312,2.654a2.741,2.741,0,0,0,1.692-2.636,1.9,1.9,0,0,0-1.9-2.056m6.509,9.4c0-1.918,1.5-3.191,3.175-3.865-1.432-.74-2.5-1.69-2.5-3.153,0-1.346,1.153-3.122,4.088-3.122,2.1,0,3.533.966,3.533,2.64a3.65,3.65,0,0,1-2.534,3.191c1.224.653,3.138,1.723,3.138,3.859,0,2.038-1.674,3.83-4.57,3.83-2.553,0-4.33-1.255-4.33-3.38m4.471,2.585a2.427,2.427,0,0,0,2.426-2.6c0-1.727-1.377-2.536-2.909-3.437a3.817,3.817,0,0,0-2.038,3.35,2.575,2.575,0,0,0,2.522,2.687m.1-11.986a1.959,1.959,0,0,0-2.1,2.038c0,1.068.742,1.774,2.311,2.654a2.745,2.745,0,0,0,1.69-2.636,1.9,1.9,0,0,0-1.9-2.056m15.047,3.952c0,4.829-4.225,7.865-6.366,8.866a.556.556,0,0,1-.311.069.189.189,0,0,1-.155-.173c0-.122.124-.226.208-.3a9.65,9.65,0,0,0,4.485-7.987c0-3.051-1.294-4.395-2.624-4.395-1.239,0-2.069,1.1-2.069,2.567,0,2.64,1.707,3.26,2.3,3.26a2.681,2.681,0,0,0,1.172-.209c.187-.1.275-.187.344-.187a.151.151,0,0,1,.138.153.344.344,0,0,1-.089.189,3.157,3.157,0,0,1-2.274.8,3.32,3.32,0,0,1-3.517-3.33c0-2.327,1.757-4.017,4.412-4.017,2.811,0,4.349,2.067,4.349,4.692" transform="translate(-723.406 -564.86)" fill="#fff"/></g></svg>