<?xml version="1.0" encoding="UTF-8"?>
<!-- Generator: Adobe Illustrator 19.2.1, SVG Export Plug-In . SVG Version: 6.00 Build 0)  -->
<svg id="layer" width="921.26752" height="500.08371" version="1.1" viewBox="0 0 921.26752 500.08371" xml:space="preserve" xmlns="http://www.w3.org/2000/svg">
<style id="style911" type="text/css">
	.st0{fill:#0077BE;}
</style>
<polyline id="polyline913" transform="translate(135.2675,-75.316298)" points="309.4 266.4 309.4 132.1 285.4 132.1 285.4 223.7 285 223.7 232.4 132.1 205.7 132.1 205.7 266.4 229.8 266.4 229.8 170.8 230.1 170.8 284.8 266.4"/>
<rect id="rect915" x="466.56747" y="94.383698" width="23" height="96.699997"/>
<rect id="rect917" x="466.56747" y="54.983704" width="23" height="21.6"/>
<path id="path919" d="m685.0675 92.483702c-10.9-0.4-18.2 2.6-22.6 8.599998-5.9-5.199998-15.6-8.599998-23.7-8.599998-25 0-38 16.699998-38 33.699998 0 11.7 6.3 19.2 14.3 25.7-4.3 1.3-15 8.4-15 17.7 0 10.4 9.8 12.8 14.3 15.6v0.4c-8.3 0-17.4 5.8-17.4 17.9 0 6 2.7 10.8 7.4 14.5v126.7h23v-118.9c3.9 0.5 8.1 0.7 12.6 0.7 30.8 0 44.6-14.9 44.6-28.7 0-38.7-63.4-17.5-63.4-33.1 0-5.6 8-6 18-6 24.1 0 36.3-13 36.3-31.3 0-7.5-2.2-13-5.2-17.1 3.5-2.2 9.5-2.2 14.8-2.2m-50.8 81.2c22.2 0 29.1 6.7 29.1 11.2 0 3.3-5 10.8-19.8 10.8-19.3 0-25.6-3.3-25.6-10.8 0-4.1 3.7-11.2 16.3-11.2m4.3-47.6c-9.8 0-16.7-7.1-16.7-16s6.9-16 16.7-16c8.7 0 15.7 7.1 15.7 16s-7 16-15.7 16"/>
<path id="path921" d="m766.9675 177.1837v-45.6c0-29-11.1-38.499998-37.1-39.099998-14.1-0.4-30 7.4-35.9 17.699998l14.8 11.4c4.4-6.1 10.4-11.9 21.1-11.9 8.1 0 14.1 4.1 14.1 11.5v8.2c-37.4 4.5-55.2 16-55.2 38 0 13.2 8.7 25.7 26.1 25.7 12 0 20.7-3.9 30-10.2l1.5 8.4h22.4c-1.5-4.4-1.8-9.3-1.8-14.1m-23-11.5c-4.8 4.1-13.9 10.2-21.1 10.2-6.5 0-11.1-4.1-11.1-11.3 0-13.6 16.9-16.8 32.2-19.7z"/>
<path id="path923" d="m583.3675 177.1837v-45.6c0-29-11.1-38.499998-37-39.099998-14.1-0.4-30 7.4-35.9 17.699998l14.8 11.4c4.4-6.1 10.4-11.9 21.1-11.9 8.1 0 14.1 4.1 14.1 11.5v8.2c-37.4 4.5-55.2 16-55.2 38 0 13.2 8.7 25.7 26.1 25.7 12.1 0 20.8-3.9 30-10.2l1.5 8.4h22.4c-1.5-4.4-1.9-9.3-1.9-14.1m-23-11.5c-4.8 4.1-13.9 10.2-21.1 10.2-6.5 0-11.1-4.1-11.1-11.3 0-13.6 16.9-16.8 32.2-19.7z"/>
<path id="path925" d="m832.9675 116.6837c1.7 0 3 0 4.1 0.2v-24.399998c-13.7 0.4-21.5 6.9-27 18.399998h-0.4v-16.599998h-21.1v96.699998h23v-58.8c-0.1-2.3 9.9-15.5 21.4-15.5"/>
<path id="path927" d="m918.5675 177.1837v-45.6c0-29-11.1-38.499998-37-39.099998-14.1-0.4-30 7.4-35.9 17.699998l14.8 11.4c4.4-6.1 10.4-11.9 21.1-11.9 8.1 0 14.1 4.1 14.1 11.5v8.2c-37.4 4.5-55.2 16-55.2 38 0 13.2 8.7 25.7 26.1 25.7 12.1 0 20.7-3.9 30-10.2l1.5 8.4h22.4c-1.6-4.4-1.9-9.3-1.9-14.1m-23-11.5c-4.8 4.1-13.9 10.2-21.1 10.2-6.5 0-11.1-4.1-11.1-11.3 0-13.6 16.8-16.8 32.2-19.7z"/>
<path id="path929" d="m331.4675 277.4837c0 43.9 19.7 69 53.7 69 24.4 0 41.9-11.9 49.8-35.1l-23.7-6.3c-7.6 15.8-14.6 19.9-26.1 19.9-19.3 0-28.5-16-28.2-47.5 0-31.4 10.4-47.4 27.4-47.4 12.6 0 20.6 8 24.3 19.3l23.2-5.6c-6.3-23.8-21.1-35.3-46.7-35.3-34 0-53.7 25.1-53.7 69"/>
<path id="path931" d="m487.6675 246.0837c-26.1 0-41.9 19.5-41.9 50.2s15.8 50.2 41.9 50.2 41.9-19.5 41.9-50.2-15.7-50.2-41.9-50.2m0 81.8c-12.8 0-18.9-10.1-18.9-31.6 0-21.6 6.1-31.6 18.9-31.6s18.9 10.1 18.9 31.6c0 21.6-6.1 31.6-18.9 31.6"/>
<rect id="rect933" x="550.46753" y="210.28371" width="23" height="134.3"/>
<path id="path935" d="m729.3675 290.4837c0-23.3-14.1-44.7-39.3-44.5-26.1 0-41.9 19.6-41.9 50.2 0 30.7 15.7 50.2 40.7 50.2 18.5 0 31.5-6 40.4-19.7l-16.7-10.4c-5.7 6.7-10.8 11.5-21.5 11.5s-19.6-7.8-20-27.9h58.2m-58.1-15.5c0.4-13.4 7.4-21.2 18.5-21.2s18.2 7.8 18.5 21.2z"/>
<path id="path937" d="m920.9675 290.4837c0-23.3-14.1-44.7-39.3-44.5-26.1 0-41.9 19.6-41.9 50.2 0 30.7 15.7 50.2 40.8 50.2 18.5 0 31.5-6 40.4-19.7l-16.7-10.3c-5.8 6.7-10.8 11.5-21.5 11.5-10.8 0-19.7-7.8-20-27.9h58.2m-58.2-15.6c0.4-13.4 7.4-21.2 18.5-21.2s18.2 7.8 18.5 21.2z"/>
<path id="path939" d="m331.4675 430.9837c0 43.9 19.7 69 53.7 69 24.4 0 41.9-11.9 49.8-35.2l-23.7-6.3c-7.6 15.8-14.6 19.9-26.1 19.9-19.3 0-28.5-16-28.2-47.4 0-31.4 10.4-47.4 27.4-47.4 12.6 0 20.6 8 24.3 19.3l23.2-5.6c-6.3-23.8-21.1-35.3-46.7-35.3-34 0-53.7 25.1-53.7 69"/>
<path id="path941" d="m520.6675 484.1837v-45.6c0-29-11.1-38.5-37.1-39.1-14.1-0.4-30 7.5-35.9 17.7l14.8 11.3c4.4-6.1 10.4-11.9 21.1-11.9 8.1 0 14.1 4.1 14.1 11.5v8.2c-37.4 4.5-55.2 16-55.2 38 0 13.2 8.7 25.7 26.1 25.7 12 0 20.7-3.9 30-10.2l1.5 8.4h22.4c-1.4-4.3-1.8-9.2-1.8-14m-23-11.5c-4.8 4.1-13.9 10.2-21.1 10.2-6.5 0-11.1-4.1-11.1-11.3 0-13.6 16.8-16.8 32.2-19.7z"/>
<path id="path943" d="m545.5675 498.0837h23v-69.8c3.9-4.5 11.5-10.2 21.5-10.2 7.8 0 11.8 4.1 11.8 17.1v62.9h23v-66.2c0-19.7-9.3-32.4-28.5-32.4-11.3 0-21.1 6.3-29.7 12.3v-10.4h-21.1"/>
<path id="path945" d="m720.0675 484.1837v-45.6c0-29-11.1-38.5-37.1-39.1-14.1-0.4-30 7.5-35.9 17.7l14.8 11.3c4.5-6.1 10.4-11.9 21.1-11.9 8.1 0 14.1 4.1 14.1 11.5v8.2c-37.4 4.5-55.2 16-55.2 38 0 13.2 8.7 25.7 26.1 25.7 12.1 0 20.8-3.9 30-10.2l1.5 8.4h22.4c-1.4-4.3-1.8-9.2-1.8-14m-23-11.5c-4.8 4.1-13.9 10.2-21.1 10.2-6.5 0-11.1-4.1-11.1-11.3 0-13.6 16.9-16.8 32.2-19.7z"/>
<path id="path947" d="m919.4675 484.1837v-45.6c0-29-11.1-38.5-37.1-39.1-14.1-0.4-30 7.5-35.9 17.7l14.8 11.3c4.4-6.1 10.4-11.9 21.1-11.9 8.2 0 14.1 4.1 14.1 11.5v8.2c-37.4 4.5-55.2 16-55.2 38 0 13.2 8.7 25.7 26.1 25.7 12 0 20.7-3.9 30-10.2l1.5 8.4h22.4c-1.4-4.3-1.8-9.2-1.8-14m-23-11.5c-4.8 4.1-13.9 10.2-21.1 10.2-6.5 0-11.1-4.1-11.1-11.3 0-13.6 16.8-16.8 32.2-19.7z"/>
<path id="path949" d="m830.8675 246.0837c-10.9-0.4-18.2 2.6-22.6 8.6-5.9-5.2-15.6-8.6-23.7-8.6-25 0-38 16.7-38 33.7 0 11.7 6.3 19.2 14.3 25.7-4.3 1.3-15 8.4-15 17.7 0 10.4 9.8 12.8 14.3 15.6v0.4c-8.3 0-17.4 5.8-17.4 17.9 0 15.2 17.1 23.1 43 23.1 5.8 0 10.9-0.5 15.6-1.5v31.8h-0.4c-4.6-6.1-15.6-10.8-23.3-10.8-24.8 0-38.5 23.8-38.5 47.6 0 30.1 12.9 52.8 38.5 52.8 10.4 0 18-4.3 26.1-12.3l1.1 10.4h19.5v-131.7c4.1-4.6 6.1-10 6.1-15.2 0-38.7-63.4-17.5-63.4-33.1 0-5.6 8-5.9 18-5.9 24.1 0 36.3-13 36.3-31.3 0-7.5-2.2-13-5.2-17.1 3.5-2.2 9.5-2.2 14.8-2.2m-29.7 211.1c-4.8 3.7-8 8.6-17.8 8.6-13.7 0-21.5-11.2-21.5-31.6 0-20.5 7.8-31.6 21.5-31.6 7.4 0 13.1 3.9 17.8 8.2zm-21.2-130c22.2 0 29.1 6.7 29.1 11.2 0 3.4-5 10.8-19.8 10.8-19.3 0-25.6-3.4-25.6-10.8 0-4.1 3.7-11.2 16.3-11.2m4.3-47.6c-9.8 0-16.7-7.1-16.7-16s6.9-16 16.7-16c8.7 0 15.7 7.1 15.7 16s-7 16-15.7 16"/>
<polyline id="polyline951" transform="translate(135.2675,-75.316298)" points="309.4 266.4 309.4 132.1 285.4 132.1 285.4 223.7 285 223.7 232.4 132.1 205.7 132.1 205.7 266.4 229.8 266.4 229.8 170.8 230.1 170.8 284.8 266.4"/>
<rect id="rect953" x="466.56747" y="94.383698" width="23" height="96.699997"/>
<rect id="rect955" x="466.56747" y="54.983704" width="23" height="21.6"/>
<path id="path957" d="m685.0675 92.483702c-10.9-0.4-18.2 2.6-22.6 8.599998-5.9-5.199998-15.6-8.599998-23.7-8.599998-25 0-38 16.699998-38 33.699998 0 11.7 6.3 19.2 14.3 25.7-4.3 1.3-15 8.4-15 17.7 0 10.4 9.8 12.8 14.3 15.6v0.4c-8.3 0-17.4 5.8-17.4 17.9 0 6 2.7 10.8 7.4 14.5v126.7h23v-118.9c3.9 0.5 8.1 0.7 12.6 0.7 30.8 0 44.6-14.9 44.6-28.7 0-38.7-63.4-17.5-63.4-33.1 0-5.6 8-6 18-6 24.1 0 36.3-13 36.3-31.3 0-7.5-2.2-13-5.2-17.1 3.5-2.2 9.5-2.2 14.8-2.2m-50.8 81.2c22.2 0 29.1 6.7 29.1 11.2 0 3.3-5 10.8-19.8 10.8-19.3 0-25.6-3.3-25.6-10.8 0-4.1 3.7-11.2 16.3-11.2m4.3-47.6c-9.8 0-16.7-7.1-16.7-16s6.9-16 16.7-16c8.7 0 15.7 7.1 15.7 16s-7 16-15.7 16"/>
<path id="path959" d="m766.9675 177.1837v-45.6c0-29-11.1-38.499998-37.1-39.099998-14.1-0.4-30 7.4-35.9 17.699998l14.8 11.4c4.4-6.1 10.4-11.9 21.1-11.9 8.1 0 14.1 4.1 14.1 11.5v8.2c-37.4 4.5-55.2 16-55.2 38 0 13.2 8.7 25.7 26.1 25.7 12 0 20.7-3.9 30-10.2l1.5 8.4h22.4c-1.5-4.4-1.8-9.3-1.8-14.1m-23-11.5c-4.8 4.1-13.9 10.2-21.1 10.2-6.5 0-11.1-4.1-11.1-11.3 0-13.6 16.9-16.8 32.2-19.7z"/>
<path id="path961" d="m583.3675 177.1837v-45.6c0-29-11.1-38.499998-37-39.099998-14.1-0.4-30 7.4-35.9 17.699998l14.8 11.4c4.4-6.1 10.4-11.9 21.1-11.9 8.1 0 14.1 4.1 14.1 11.5v8.2c-37.4 4.5-55.2 16-55.2 38 0 13.2 8.7 25.7 26.1 25.7 12.1 0 20.8-3.9 30-10.2l1.5 8.4h22.4c-1.5-4.4-1.9-9.3-1.9-14.1m-23-11.5c-4.8 4.1-13.9 10.2-21.1 10.2-6.5 0-11.1-4.1-11.1-11.3 0-13.6 16.9-16.8 32.2-19.7z"/>
<path id="path963" d="m832.9675 116.6837c1.7 0 3 0 4.1 0.2v-24.399998c-13.7 0.4-21.5 6.9-27 18.399998h-0.4v-16.599998h-21.1v96.699998h23v-58.8c-0.1-2.3 9.9-15.5 21.4-15.5"/>
<path id="path965" d="m918.5675 177.1837v-45.6c0-29-11.1-38.499998-37-39.099998-14.1-0.4-30 7.4-35.9 17.699998l14.8 11.4c4.4-6.1 10.4-11.9 21.1-11.9 8.1 0 14.1 4.1 14.1 11.5v8.2c-37.4 4.5-55.2 16-55.2 38 0 13.2 8.7 25.7 26.1 25.7 12.1 0 20.7-3.9 30-10.2l1.5 8.4h22.4c-1.6-4.4-1.9-9.3-1.9-14.1m-23-11.5c-4.8 4.1-13.9 10.2-21.1 10.2-6.5 0-11.1-4.1-11.1-11.3 0-13.6 16.8-16.8 32.2-19.7z"/>
<path id="path967" d="m331.4675 277.4837c0 43.9 19.7 69 53.7 69 24.4 0 41.9-11.9 49.8-35.1l-23.7-6.3c-7.6 15.8-14.6 19.9-26.1 19.9-19.3 0-28.5-16-28.2-47.5 0-31.4 10.4-47.4 27.4-47.4 12.6 0 20.6 8 24.3 19.3l23.2-5.6c-6.3-23.8-21.1-35.3-46.7-35.3-34 0-53.7 25.1-53.7 69"/>
<path id="path969" d="m487.6675 246.0837c-26.1 0-41.9 19.5-41.9 50.2s15.8 50.2 41.9 50.2 41.9-19.5 41.9-50.2-15.7-50.2-41.9-50.2m0 81.8c-12.8 0-18.9-10.1-18.9-31.6 0-21.6 6.1-31.6 18.9-31.6s18.9 10.1 18.9 31.6c0 21.6-6.1 31.6-18.9 31.6"/>
<rect id="rect971" x="550.46753" y="210.28371" width="23" height="134.3"/>
<path id="path973" d="m729.3675 290.4837c0-23.3-14.1-44.7-39.3-44.5-26.1 0-41.9 19.6-41.9 50.2 0 30.7 15.7 50.2 40.7 50.2 18.5 0 31.5-6 40.4-19.7l-16.7-10.4c-5.7 6.7-10.8 11.5-21.5 11.5s-19.6-7.8-20-27.9h58.2m-58.1-15.5c0.4-13.4 7.4-21.2 18.5-21.2s18.2 7.8 18.5 21.2z"/>
<path id="path975" d="m920.9675 290.4837c0-23.3-14.1-44.7-39.3-44.5-26.1 0-41.9 19.6-41.9 50.2 0 30.7 15.7 50.2 40.8 50.2 18.5 0 31.5-6 40.4-19.7l-16.7-10.3c-5.8 6.7-10.8 11.5-21.5 11.5-10.8 0-19.7-7.8-20-27.9h58.2m-58.2-15.6c0.4-13.4 7.4-21.2 18.5-21.2s18.2 7.8 18.5 21.2z"/>
<path id="path977" d="m331.4675 430.9837c0 43.9 19.7 69 53.7 69 24.4 0 41.9-11.9 49.8-35.2l-23.7-6.3c-7.6 15.8-14.6 19.9-26.1 19.9-19.3 0-28.5-16-28.2-47.4 0-31.4 10.4-47.4 27.4-47.4 12.6 0 20.6 8 24.3 19.3l23.2-5.6c-6.3-23.8-21.1-35.3-46.7-35.3-34 0-53.7 25.1-53.7 69"/>
<path id="path979" d="m520.6675 484.1837v-45.6c0-29-11.1-38.5-37.1-39.1-14.1-0.4-30 7.5-35.9 17.7l14.8 11.3c4.4-6.1 10.4-11.9 21.1-11.9 8.1 0 14.1 4.1 14.1 11.5v8.2c-37.4 4.5-55.2 16-55.2 38 0 13.2 8.7 25.7 26.1 25.7 12 0 20.7-3.9 30-10.2l1.5 8.4h22.4c-1.4-4.3-1.8-9.2-1.8-14m-23-11.5c-4.8 4.1-13.9 10.2-21.1 10.2-6.5 0-11.1-4.1-11.1-11.3 0-13.6 16.8-16.8 32.2-19.7z"/>
<path id="path981" d="m545.5675 498.0837h23v-69.8c3.9-4.5 11.5-10.2 21.5-10.2 7.8 0 11.8 4.1 11.8 17.1v62.9h23v-66.2c0-19.7-9.3-32.4-28.5-32.4-11.3 0-21.1 6.3-29.7 12.3v-10.4h-21.1"/>
<path id="path983" d="m720.0675 484.1837v-45.6c0-29-11.1-38.5-37.1-39.1-14.1-0.4-30 7.5-35.9 17.7l14.8 11.3c4.5-6.1 10.4-11.9 21.1-11.9 8.1 0 14.1 4.1 14.1 11.5v8.2c-37.4 4.5-55.2 16-55.2 38 0 13.2 8.7 25.7 26.1 25.7 12.1 0 20.8-3.9 30-10.2l1.5 8.4h22.4c-1.4-4.3-1.8-9.2-1.8-14m-23-11.5c-4.8 4.1-13.9 10.2-21.1 10.2-6.5 0-11.1-4.1-11.1-11.3 0-13.6 16.9-16.8 32.2-19.7z"/>
<path id="path985" d="m919.4675 484.1837v-45.6c0-29-11.1-38.5-37.1-39.1-14.1-0.4-30 7.5-35.9 17.7l14.8 11.3c4.4-6.1 10.4-11.9 21.1-11.9 8.2 0 14.1 4.1 14.1 11.5v8.2c-37.4 4.5-55.2 16-55.2 38 0 13.2 8.7 25.7 26.1 25.7 12 0 20.7-3.9 30-10.2l1.5 8.4h22.4c-1.4-4.3-1.8-9.2-1.8-14m-23-11.5c-4.8 4.1-13.9 10.2-21.1 10.2-6.5 0-11.1-4.1-11.1-11.3 0-13.6 16.8-16.8 32.2-19.7z"/>
<path id="path987" d="m830.8675 246.0837c-10.9-0.4-18.2 2.6-22.6 8.6-5.9-5.2-15.6-8.6-23.7-8.6-25 0-38 16.7-38 33.7 0 11.7 6.3 19.2 14.3 25.7-4.3 1.3-15 8.4-15 17.7 0 10.4 9.8 12.8 14.3 15.6v0.4c-8.3 0-17.4 5.8-17.4 17.9 0 15.2 17.1 23.1 43 23.1 5.8 0 10.9-0.5 15.6-1.5v31.8h-0.4c-4.6-6.1-15.6-10.8-23.3-10.8-24.8 0-38.5 23.8-38.5 47.6 0 30.1 12.9 52.8 38.5 52.8 10.4 0 18-4.3 26.1-12.3l1.1 10.4h19.5v-131.7c4.1-4.6 6.1-10 6.1-15.2 0-38.7-63.4-17.5-63.4-33.1 0-5.6 8-5.9 18-5.9 24.1 0 36.3-13 36.3-31.3 0-7.5-2.2-13-5.2-17.1 3.5-2.2 9.5-2.2 14.8-2.2m-29.7 211.1c-4.8 3.7-8 8.6-17.8 8.6-13.7 0-21.5-11.2-21.5-31.6 0-20.5 7.8-31.6 21.5-31.6 7.4 0 13.1 3.9 17.8 8.2zm-21.2-130c22.2 0 29.1 6.7 29.1 11.2 0 3.4-5 10.8-19.8 10.8-19.3 0-25.6-3.4-25.6-10.8 0-4.1 3.7-11.2 16.3-11.2m4.3-47.6c-9.8 0-16.7-7.1-16.7-16s6.9-16 16.7-16c8.7 0 15.7 7.1 15.7 16s-7 16-15.7 16"/>
<g id="g991" transform="matrix(.1 0 0 -.1 135.2675 224.6837)">
	<path id="path1198" d="m-109.9 2240c-150.5-20.4-343.6-79.6-477.6-148.5-25.2-12.6-85.4-49.5-134-81.5-316.4-209.7-525.1-521.2-608.6-908.5-30.1-141.7-30.1-414.5 0-556.2 63.2-292.3 210.7-557.3 421.3-755.3 564-530 1435.6-516.4 1984 31.1 202.9 203.8 343.6 475.6 392.1 758.1 22.3 125.2 26.2 324.2 8.7 444.6-83.5 600.8-544.5 1085.2-1145.4 1202.6-96.9 19.4-344.4 27.2-440.5 13.6z" fill="#ffffff"/><path id="path989" class="st0" d="m-109.9 2240c-150.5-20.4-343.6-79.6-477.6-148.5-25.2-12.6-85.4-49.5-134-81.5-316.4-209.7-525.1-521.2-608.6-908.5-30.1-141.7-30.1-414.5 0-556.2 63.2-292.3 210.7-557.3 421.3-755.3 564-530 1435.6-516.4 1984 31.1 202.9 203.8 343.6 475.6 392.1 758.1 22.3 125.2 26.2 324.2 8.7 444.6-83.5 600.8-544.5 1085.2-1145.4 1202.6-96.9 19.4-344.4 27.2-440.5 13.6zm-54.4-946.4c87.4-36.9 137.8-106.8 156.3-218.4 4.9-34 9.7-209.7 9.7-389.2v-328.1h-233v342.6c0 305.8-1.9 345.6-17.5 375.6-18.4 37.9-51.4 58.2-95.1 58.2-51.4 0-125.2-27.2-167-64.1l-40.8-34.9v-677.4h-223.2v941.6h203.9v-48.5c0-26.2 2.9-48.5 5.8-48.5s17.5 7.8 31.1 18.4c45.6 32 131 71.8 181.5 84.4 55.4 14.5 138.8 8.7 188.3-11.7zm797 14.5c113.6-17.5 213.5-79.6 267.9-166 46.6-72.8 44.7-76.7-56.3-115.5l-89.3-34.9-30.1 49.5c-71.9 121.3-234.9 125.2-300 5.8-36.9-67.9-51.4-187.3-36.9-302.8 17.5-142.7 62.1-208.7 149.5-221.3 88.3-12.6 157.2 21.4 207.7 100.9l27.2 43.7 73.8-39.8c102.9-55.3 101.9-54.4 71.8-100-94.1-142.7-198-195.1-372.7-187.3-81.5 2.9-101.9 7.8-158.2 34.9-157.3 77.7-240.7 258.2-227.2 492.2 15.5 272.8 155.3 432.9 395.1 450.4 7.8-0.1 42.7-3.9 77.7-9.8z"/>
</g>
</svg>
